<?xml version="1.0" encoding="UTF-8"?>
<svg id="Layer_1" xmlns="http://www.w3.org/2000/svg" version="1.1" viewBox="0 0 150 150">
  <!-- Generator: Adobe Illustrator 29.2.1, SVG Export Plug-In . SVG Version: 2.1.0 Build 116)  -->
  <defs>
    <style>
      .st0 {
        fill: #fff;
      }

      .st1 {
        fill: #0f3b63;
      }
    </style>
  </defs>
  <circle class="st1" cx="75" cy="75" r="72.5"/>
  <g>
    <g>
      <path class="st0" d="M72.3,8.7s-2.7,5.7,6.9,17.7c9.5,12,17.7,20.6,9.9,40.7,0,0,1.1-11.1-8.3-20.9-9.4-9.8-9.9-13.9-9.9-13.9,0,0-1.9,6.9,7.1,17.4,9,10.5,9.2,19.1,2.7,30.2,0,0,2.3-8.6-11-22.7-13.4-14.4-9.3-32.4,2.6-48.5Z"/>
      <path class="st0" d="M57.7,39.1s-2.7,6.5-2.7,12.9,4,15.6,10.1,21.9c6.1,6.3,9.9,12.6,10.1,15.1,0,0,2.2-4.1,2.2-7.8s-1.9-9.7-5.6-14.4c-3.7-4.8-14.6-15.4-14.1-27.6Z"/>
    </g>
    <g>
      <path class="st0" d="M100.6,95.4h-52.1c-1.2,0-2.1-.9-2.1-2.1s.9-2.1,2.1-2.1h52.1c1.2,0,2.1.9,2.1,2.1s-.9,2.1-2.1,2.1Z"/>
      <path class="st0" d="M95.7,101.3h-42.8c-1.2,0-2.1-.9-2.1-2.1s.9-2.1,2.1-2.1h42.8c1.2,0,2.1.9,2.1,2.1s-.9,2.1-2.1,2.1Z"/>
      <path class="st0" d="M73.9,142c-1.2,0-2.1-.9-2.1-2.1v-32.5c0-1.2.9-2.1,2.1-2.1s2.1.9,2.1,2.1v32.5c0,1.2-.9,2.1-2.1,2.1Z"/>
      <path class="st0" d="M66.6,136.3c-1.2,0-2.1-.9-2.1-2.1v-26c0-.7-.6-1.3-1.3-1.3h-5.9c-1.2,0-2.1-.9-2.1-2.1s.9-2.1,2.1-2.1h5.9c3,0,5.5,2.5,5.5,5.5v26c0,1.2-.9,2.1-2.1,2.1Z"/>
      <path class="st0" d="M81.2,136.3c-1.2,0-2.1-.9-2.1-2.1v-26c0-3,2.5-5.5,5.5-5.5h5.9c1.2,0,2.1.9,2.1,2.1s-.9,2.1-2.1,2.1h-5.9c-.7,0-1.3.6-1.3,1.3v26c0,1.2-.9,2.1-2.1,2.1Z"/>
    </g>
  </g>
</svg>