<?xml version="1.0" encoding="UTF-8"?>
<svg id="Layer_1" xmlns="http://www.w3.org/2000/svg" version="1.1" viewBox="0 0 150 104">
  <!-- Generator: Adobe Illustrator 29.2.1, SVG Export Plug-In . SVG Version: 2.1.0 Build 116)  -->
  <defs>
    <style>
      .st0 {
        fill: #0f3b63;
      }
    </style>
  </defs>
  <path class="st0" d="M45.1,47.5c-1.7,1.5-4.1,2.7-7.4,3.6-3.2.9-6.8,1.4-10.6,1.4-5.9,0-10.7-1.5-14.2-4.4-3.5-2.9-5.4-7-5.7-12.2v-3.1c0-3.6.8-6.7,2.3-9.4,1.6-2.7,3.8-4.7,6.8-6.2,2.9-1.4,6.3-2.2,10.2-2.2,5.6,0,10,1,13.2,3.1,3.1,2.1,4.9,5.2,5.5,9.3h-10.5c-.4-2-1.2-3.5-2.4-4.3-1.2-.9-3-1.3-5.3-1.3s-4.9.9-6.4,2.8c-1.5,1.9-2.3,4.5-2.3,8v2.2c0,3.6.8,6.4,2.3,8.2,1.5,1.8,4,2.7,7.3,2.7s5-.5,6.4-1.5v-5.6h-7.6v-6h18.5v14.9Z"/>
  <path class="st0" d="M87,42.1l9-26.5h12.2l-15.3,36.4h-12l-15.1-36.4h12.1l9,26.5Z"/>
  <path class="st0" d="M139.7,36.5h-17.2v8.7h20.3v6.7h-31.2V15.6h31.3v6.8h-20.4v7.7h17.2v6.5Z"/>
  <path class="st0" d="M22,93.2v-36.4h14.6c4,0,7.6.7,10.8,2.2,3.2,1.5,5.7,3.5,7.5,6.2,1.8,2.7,2.7,5.6,2.7,8.9v1.7c0,3.3-.9,6.3-2.6,9-1.8,2.6-4.2,4.7-7.4,6.2-3.2,1.5-6.7,2.2-10.7,2.3h-14.9ZM32.9,63.6v22.9h3.8c3.1,0,5.5-.9,7.2-2.7s2.5-4.5,2.5-8v-1.6c0-3.5-.8-6.2-2.5-7.9-1.7-1.8-4.1-2.7-7.3-2.7h-3.7Z"/>
  <path class="st0" d="M85.2,86.4h-15l-2.6,6.8h-11.7l16.6-36.4h10.3l16.8,36.4h-11.7l-2.6-6.8ZM72.8,79.7h9.7l-4.9-12.6-4.9,12.6Z"/>
  <path class="st0" d="M112.2,72.7l8.3-15.8h11.8l-14.6,23.3v13.1h-11.1v-13.1l-14.6-23.3h11.7l8.4,15.8Z"/>
  <g>
    <g>
      <path class="st0" d="M57.1,10.8s-.9,1.9,2.3,6,6,7,3.3,13.8c0,0,.4-3.8-2.8-7.1s-3.3-4.7-3.3-4.7c0,0-.7,2.3,2.4,5.9,3.1,3.5,3.1,6.5.9,10.2,0,0,.8-2.9-3.7-7.7s-3.1-10.9.9-16.4Z"/>
      <path class="st0" d="M52.2,21s-.9,2.2-.9,4.4,1.3,5.3,3.4,7.4,3.3,4.3,3.4,5.1c0,0,.7-1.4.7-2.7s-.7-3.3-1.9-4.9-4.9-5.2-4.8-9.3Z"/>
    </g>
    <g>
      <path class="st0" d="M66.7,40.1h-17.6c-.4,0-.7-.3-.7-.7s.3-.7.7-.7h17.6c.4,0,.7.3.7.7s-.3.7-.7.7Z"/>
      <path class="st0" d="M65.1,42.1h-14.5c-.4,0-.7-.3-.7-.7s.3-.7.7-.7h14.5c.4,0,.7.3.7.7s-.3.7-.7.7Z"/>
      <path class="st0" d="M57.7,55.8c-.4,0-.7-.3-.7-.7v-11c0-.4.3-.7.7-.7s.7.3.7.7v11c0,.4-.3.7-.7.7Z"/>
      <path class="st0" d="M55.2,53.9c-.4,0-.7-.3-.7-.7v-8.8c0-.2-.2-.4-.4-.4h-2c-.4,0-.7-.3-.7-.7s.3-.7.7-.7h2c1,0,1.9.8,1.9,1.9v8.8c0,.4-.3.7-.7.7Z"/>
      <path class="st0" d="M60.2,53.9c-.4,0-.7-.3-.7-.7v-8.8c0-1,.8-1.9,1.9-1.9h2c.4,0,.7.3.7.7s-.3.7-.7.7h-2c-.2,0-.4.2-.4.4v8.8c0,.4-.3.7-.7.7Z"/>
    </g>
  </g>
</svg>