<?xml version="1.0" encoding="utf-8"?>
<!-- Generator: Adobe Illustrator 16.0.4, SVG Export Plug-In . SVG Version: 6.00 Build 0)  -->
<!DOCTYPE svg PUBLIC "-//W3C//DTD SVG 1.1//EN" "http://www.w3.org/Graphics/SVG/1.1/DTD/svg11.dtd">
<svg version="1.1" id="Layer_1" xmlns="http://www.w3.org/2000/svg" xmlns:xlink="http://www.w3.org/1999/xlink" x="0px" y="0px"
	 width="132.5px" height="33.125px" viewBox="0 0 132.5 33.125" enable-background="new 0 0 132.5 33.125" xml:space="preserve">
<g>
	<path fill-rule="evenodd" clip-rule="evenodd" fill="#FFFFFF" d="M114.922,3.007c0.604-0.11,1.203-0.22,1.804-0.33
		c0.002,4.617,0,9.233,0,13.85c0.007,0.401-0.015,1.007,0.031,1.409c0.09,0.654,0.358,1.174,1.109,1.263
		c0.379,0.046,0.755-0.064,1.103-0.201c0.148,0.417,0.304,0.833,0.451,1.251c-0.612,0.284-1.284,0.432-1.958,0.471
		c-0.383,0.02-0.775-0.003-1.144-0.118c-0.908-0.294-1.364-1.112-1.394-2.033C114.922,13.382,114.925,8.194,114.922,3.007
		L114.922,3.007z"/>
	<path fill-rule="evenodd" clip-rule="evenodd" fill="#FFFFFF" d="M109.557,2.9c0.396-0.077,0.822,0.014,1.151,0.25
		c0.271,0.188,0.476,0.467,0.574,0.782c0.108,0.349,0.087,0.738-0.065,1.071c-0.167,0.372-0.491,0.669-0.877,0.803
		c-0.374,0.133-0.803,0.11-1.159-0.065c-0.3-0.145-0.548-0.389-0.694-0.688c-0.186-0.368-0.207-0.815-0.062-1.201
		C108.603,3.367,109.048,2.993,109.557,2.9L109.557,2.9z"/>
	<path fill-rule="evenodd" clip-rule="evenodd" fill="#FFFFFF" d="M94.593,8.489c0.452-0.139,0.923-0.23,1.394-0.209
		c0.438,0.016,0.876,0.141,1.23,0.397c0.368,0.259,0.633,0.637,0.812,1.043c0.606-0.468,1.353-0.85,2.171-1.135
		c0.467-0.167,1.12-0.276,1.619-0.256c0.42,0.016,0.841,0.147,1.183,0.392c0.282,0.191,0.514,0.448,0.705,0.727
		c0.151,0.217,0.289,0.451,0.379,0.704c0.061,0.177,0.079,0.367,0.089,0.555c0.001,3.138,0.013,6.276,0.013,9.415
		c0,0.111-0.065,0.259-0.193,0.259c-0.433,0-0.866,0-1.3,0c-0.077,0.003-0.159-0.01-0.216-0.064
		c-0.056-0.047-0.075-0.125-0.072-0.195c0-2.718,0-5.435,0-8.15c0-0.212,0.018-0.428-0.021-0.639
		c-0.036-0.206-0.122-0.397-0.221-0.581c-0.162-0.298-0.399-0.562-0.705-0.718c-0.378-0.195-0.703-0.208-1.112-0.122
		c-0.676,0.149-1.336,0.543-1.907,0.983c0.002,3.014,0,6.024,0.002,9.037c-0.005,0.093,0.012,0.193-0.023,0.281
		c-0.037,0.103-0.15,0.157-0.255,0.157c-0.42,0-0.839,0-1.26,0c-0.091-0.002-0.191-0.01-0.265-0.069
		c-0.065-0.052-0.085-0.141-0.085-0.223c0-2.885,0.003-5.771,0-8.659c-0.059-0.431-0.193-0.873-0.492-1.201
		c-0.232-0.258-0.579-0.394-0.924-0.404c-0.484-0.016-0.947,0.148-1.379,0.348c-0.411,0.199-0.797,0.447-1.152,0.731
		c-0.021,3.005-0.044,6.009-0.063,9.014c-0.003,0.126,0.003,0.255-0.034,0.376c-0.028,0.075-0.095,0.147-0.182,0.144
		c-0.446,0.003-0.892,0-1.34,0.003c-0.07,0-0.15-0.015-0.196-0.075c-0.052-0.065-0.052-0.154-0.054-0.236c0-2.339,0-4.68,0-7.021
		c-0.005-0.583,0.01-1.165-0.012-1.747c-0.022-0.486-0.062-0.976-0.189-1.447c-0.054-0.197-0.133-0.389-0.232-0.568
		c-0.044-0.075-0.051-0.172-0.007-0.248c0.048-0.088,0.141-0.137,0.226-0.183c0.314-0.159,0.629-0.321,0.941-0.48
		c0.088-0.051,0.199-0.095,0.296-0.039c0.088,0.06,0.103,0.174,0.137,0.267c0.123,0.354,0.244,0.71,0.37,1.063
		C92.976,9.199,93.752,8.758,94.593,8.489L94.593,8.489z"/>
	<path fill-rule="evenodd" clip-rule="evenodd" fill="#FFFFFF" d="M83.025,8.444c1.001-0.22,2.057-0.098,3.017,0.239
		c0.258,0.087,0.509,0.192,0.756,0.305c0.137,0.067,0.262,0.182,0.299,0.334c0.019,0.09,0.019,0.189-0.02,0.275
		c-0.119,0.253-0.245,0.505-0.364,0.759c-0.041,0.09-0.126,0.156-0.217,0.191c-0.104,0.038-0.222,0.008-0.315-0.042
		c-0.374-0.174-0.759-0.325-1.156-0.43c-0.497-0.13-1.022-0.188-1.529-0.09c-0.368,0.073-0.727,0.239-0.983,0.516
		c-0.304,0.311-0.448,0.766-0.396,1.197c0.052,0.482,0.334,0.919,0.713,1.217c0.147,0.121,0.314,0.216,0.482,0.301
		c0.835,0.43,1.667,0.857,2.5,1.289c0.667,0.42,1.236,1.021,1.542,1.755c0.201,0.478,0.278,1.01,0.218,1.525
		c-0.073,0.669-0.393,1.297-0.853,1.788c-0.076,0.065-0.15,0.139-0.226,0.209c-0.34,0.291-0.729,0.523-1.151,0.674
		c-0.453,0.18-0.939,0.262-1.423,0.288c-1.196,0.052-2.375-0.273-3.46-0.759c-0.124-0.062-0.264-0.106-0.369-0.203
		c-0.105-0.1-0.133-0.259-0.089-0.393c0.06-0.179,0.149-0.344,0.221-0.517c0.08-0.168,0.133-0.363,0.276-0.494
		c0.069-0.068,0.176-0.101,0.267-0.059c0.19,0.085,0.37,0.187,0.564,0.265c0.388,0.168,0.792,0.308,1.206,0.408
		c0.606,0.139,1.236,0.181,1.854,0.103c0.375-0.088,0.718-0.308,0.959-0.609c0.287-0.337,0.432-0.795,0.386-1.236
		c-0.041-0.399-0.235-0.776-0.525-1.054c-0.24-0.249-0.546-0.422-0.855-0.569c-0.414-0.205-0.829-0.406-1.241-0.612
		c-0.184-0.098-0.385-0.147-0.569-0.24c-0.792-0.355-1.49-0.947-1.899-1.719c-0.209-0.399-0.342-0.844-0.364-1.295
		c-0.029-0.501,0.07-1.01,0.293-1.46c0.363-0.751,1.038-1.317,1.791-1.649C82.572,8.547,82.802,8.498,83.025,8.444L83.025,8.444z"/>
	<path fill-rule="evenodd" clip-rule="evenodd" fill="#FFFFFF" d="M123.407,8.701c0.532-0.214,1.107-0.308,1.677-0.299
		c0.592,0.008,1.189,0.113,1.737,0.344c0.44,0.185,0.848,0.453,1.19,0.785c0.725,0.691,1.17,1.628,1.407,2.588
		c0.228,0.895,0.278,1.824,0.265,2.745c-2.498,0-4.994,0-7.493,0c0.005,0.958,0.242,1.941,0.8,2.734
		c0.203,0.303,0.463,0.561,0.746,0.787c0.446,0.34,0.983,0.561,1.537,0.651c0.571,0.098,1.162,0.075,1.727-0.059
		c0.65-0.144,1.28-0.397,1.843-0.755c0.12,0.278,0.242,0.551,0.363,0.826c0.063,0.159,0.146,0.311,0.201,0.473
		c-0.443,0.288-0.919,0.523-1.418,0.697c-0.476,0.18-0.977,0.304-1.48,0.377c-0.635,0.087-1.285,0.061-1.915-0.057
		c-0.974-0.18-1.895-0.654-2.588-1.361c-0.692-0.702-1.163-1.601-1.432-2.547c-0.216-0.75-0.312-1.535-0.312-2.317
		c0-1.206,0.247-2.431,0.833-3.493C121.602,9.886,122.41,9.092,123.407,8.701L123.407,8.701z M123.542,10.397
		c-0.45,0.312-0.782,0.769-1,1.268c-0.228,0.523-0.323,1.094-0.328,1.661c1.84,0,3.679,0,5.521,0
		c-0.005-0.496-0.087-0.991-0.251-1.458c-0.161-0.448-0.403-0.875-0.739-1.215c-0.358-0.365-0.831-0.622-1.34-0.691
		C124.759,9.867,124.076,10.017,123.542,10.397L123.542,10.397z"/>
	<path fill-rule="evenodd" clip-rule="evenodd" fill="#FFFFFF" d="M106.852,8.808c-0.006-0.085,0.078-0.145,0.158-0.136
		c1.258,0,2.518,0,3.775,0c0.082-0.009,0.163,0.063,0.15,0.15c0,3.773,0,7.55,0,11.323c0.01,0.092-0.063,0.183-0.16,0.18
		c-0.494,0.003-0.99,0-1.485,0.003c-0.062,0-0.133-0.001-0.174-0.052c-0.034-0.033-0.042-0.083-0.042-0.129
		c0-3.329,0.001-6.653,0-9.982c-0.695,0-1.389,0.001-2.084,0c-0.074,0.005-0.143-0.058-0.138-0.133
		C106.848,9.624,106.852,9.216,106.852,8.808L106.852,8.808z"/>
	<path fill-rule="evenodd" clip-rule="evenodd" fill="#FFFFFF" d="M50.275,21.473c0.644-0.013,1.292,0.025,1.922,0.157
		c0.246,0.054,0.493,0.118,0.719,0.229c0.124,0.062,0.245,0.154,0.288,0.29c0.091,0.28,0.087,0.578,0.077,0.869
		c-0.022,0.452-0.098,0.9-0.198,1.341c-0.228,0.976-0.598,1.921-1.118,2.781c-0.333,0.533-0.729,1.037-1.205,1.455
		c-0.121,0.108-0.255,0.223-0.425,0.236c-0.089,0.013-0.189-0.026-0.228-0.111c-0.039-0.092-0.021-0.193,0.011-0.278
		c0.399-1.011,0.8-2.025,1.082-3.075c0.066-0.262,0.128-0.526,0.169-0.792c0.046-0.313,0.087-0.645-0.004-0.951
		c-0.044-0.154-0.16-0.278-0.3-0.348c-0.239-0.124-0.507-0.173-0.771-0.209c-0.65-0.075-1.309-0.053-1.961-0.013
		c-0.727,0.046-1.45,0.127-2.171,0.216c-0.105,0.013-0.227,0.003-0.304-0.079c-0.068-0.069-0.061-0.18-0.021-0.262
		c0.067-0.141,0.196-0.231,0.324-0.313c0.555-0.373,1.179-0.632,1.819-0.813C48.729,21.591,49.503,21.489,50.275,21.473
		L50.275,21.473z"/>
	<path fill-rule="evenodd" clip-rule="evenodd" fill="#FFFFFF" d="M13.629,22.266c0.122-0.029,0.252-0.002,0.36,0.058
		c0.414,0.226,0.822,0.464,1.237,0.687c3.175,1.689,6.593,2.909,10.105,3.667c2.045,0.436,4.123,0.72,6.209,0.835
		c4.183,0.245,8.398-0.236,12.435-1.342c1.568-0.432,3.113-0.955,4.616-1.58c0.158-0.062,0.312-0.144,0.484-0.157
		c0.243-0.029,0.509,0.079,0.63,0.298c0.098,0.164,0.081,0.376-0.019,0.533c-0.112,0.184-0.302,0.295-0.47,0.419
		c-1.761,1.26-3.721,2.218-5.752,2.957c-1.409,0.511-2.858,0.91-4.328,1.207c-2.1,0.423-4.243,0.635-6.386,0.596
		c-2.091-0.039-4.179-0.288-6.216-0.759c-3.463-0.795-6.779-2.234-9.724-4.22c-1.062-0.717-2.076-1.502-3.033-2.353
		c-0.115-0.111-0.257-0.199-0.336-0.34c-0.063-0.105-0.075-0.242-0.015-0.351C13.468,22.344,13.545,22.289,13.629,22.266
		L13.629,22.266z"/>
	<path fill-rule="evenodd" clip-rule="evenodd" fill="#FFFFFF" d="M6.056,8.157c0.687-0.234,1.412-0.341,2.136-0.356
		c0.591-0.023,1.183,0.04,1.758,0.175c0.455,0.109,0.901,0.268,1.308,0.502c0.617,0.344,1.127,0.891,1.386,1.552
		c0.192,0.488,0.258,1.015,0.282,1.539c0.02,0.495,0.01,0.992,0.01,1.487c0,1.029,0,2.06,0,3.087c0,0.416-0.016,0.836,0.1,1.241
		c0.102,0.396,0.323,0.749,0.566,1.073c0.11,0.16,0.256,0.301,0.31,0.494c0.042,0.137,0.016,0.298-0.097,0.391
		c-0.535,0.458-1.068,0.918-1.594,1.386c-0.121,0.102-0.232,0.226-0.389,0.271c-0.139,0.034-0.304,0.018-0.415-0.082
		c-0.277-0.239-0.547-0.491-0.773-0.778c-0.182-0.239-0.346-0.491-0.516-0.739c-0.51,0.514-1.063,1.007-1.728,1.313
		c-0.453,0.208-0.947,0.317-1.443,0.355c-0.536,0.042-1.082,0.044-1.608-0.079c-0.434-0.097-0.853-0.275-1.212-0.537
		c-0.308-0.223-0.569-0.505-0.771-0.826c-0.317-0.508-0.485-1.099-0.535-1.693c-0.06-0.729,0.018-1.479,0.305-2.157
		c0.27-0.657,0.741-1.227,1.319-1.639c0.388-0.282,0.822-0.491,1.274-0.643c0.366-0.129,0.746-0.208,1.125-0.286
		c0.931-0.173,1.875-0.249,2.815-0.354c-0.007-0.448,0.028-0.903-0.045-1.351c-0.046-0.258-0.132-0.521-0.308-0.723
		c-0.263-0.32-0.679-0.471-1.082-0.507c-0.492-0.032-1.01,0.077-1.408,0.379c-0.27,0.2-0.466,0.49-0.566,0.81
		c-0.042,0.126-0.05,0.262-0.117,0.377C6.085,11.95,5.993,12.05,5.87,12.082c-0.069,0.021-0.141,0.005-0.211-0.003
		c-0.632-0.067-1.264-0.134-1.897-0.203c-0.103-0.013-0.212-0.011-0.308-0.057c-0.104-0.047-0.2-0.124-0.24-0.234
		c-0.046-0.116-0.012-0.24,0.013-0.356c0.125-0.583,0.364-1.146,0.727-1.622C4.474,8.911,5.238,8.428,6.056,8.157L6.056,8.157z
		 M7.823,14.946c-0.394,0.123-0.78,0.311-1.068,0.613c-0.097,0.09-0.168,0.201-0.244,0.308c-0.25,0.405-0.326,0.894-0.298,1.361
		c0.021,0.381,0.128,0.774,0.378,1.068c0.209,0.257,0.527,0.412,0.855,0.445c0.411,0.049,0.836-0.075,1.164-0.329
		c0.316-0.228,0.55-0.551,0.72-0.898c0.165-0.334,0.254-0.704,0.298-1.071c0.06-0.572,0.034-1.148,0.04-1.721
		C9.047,14.723,8.42,14.769,7.823,14.946L7.823,14.946z"/>
	<path fill-rule="evenodd" clip-rule="evenodd" fill="#FFFFFF" d="M36.999,8.027c0.58-0.153,1.18-0.22,1.78-0.229
		c0.515-0.014,1.035,0.04,1.54,0.146c0.436,0.097,0.863,0.232,1.261,0.435c0.338,0.17,0.654,0.388,0.916,0.662
		c0.297,0.291,0.52,0.65,0.668,1.037c0.178,0.475,0.241,0.985,0.264,1.489c0.021,0.524,0.01,1.049,0.012,1.576
		c0,1.148-0.002,2.298,0,3.447c0,0.388,0.063,0.782,0.223,1.14c0.162,0.361,0.408,0.677,0.645,0.993
		c0.092,0.127,0.159,0.291,0.121,0.452c-0.018,0.08-0.073,0.149-0.136,0.205c-0.503,0.418-0.998,0.845-1.49,1.275
		c-0.112,0.095-0.213,0.203-0.336,0.283c-0.164,0.109-0.406,0.104-0.555-0.031c-0.31-0.265-0.607-0.546-0.847-0.878
		c-0.148-0.208-0.289-0.418-0.43-0.629c-0.541,0.548-1.135,1.073-1.854,1.367c-0.486,0.203-1.011,0.291-1.535,0.317
		c-0.532,0.029-1.073,0.007-1.588-0.144c-0.421-0.119-0.823-0.32-1.159-0.6c-0.3-0.244-0.545-0.551-0.729-0.892
		c-0.234-0.441-0.37-0.932-0.421-1.43c-0.088-0.886,0.034-1.813,0.469-2.602c0.403-0.742,1.067-1.325,1.827-1.685
		c0.426-0.203,0.879-0.344,1.341-0.442c1.047-0.239,2.122-0.314,3.188-0.433c-0.013-0.516,0.045-1.041-0.086-1.544
		c-0.062-0.237-0.182-0.461-0.36-0.631c-0.276-0.263-0.659-0.387-1.034-0.409c-0.478-0.022-0.976,0.088-1.361,0.382
		c-0.307,0.228-0.518,0.572-0.604,0.942c-0.023,0.114-0.055,0.23-0.128,0.325c-0.069,0.1-0.187,0.176-0.312,0.17
		c-0.731-0.077-1.464-0.157-2.196-0.233c-0.22-0.025-0.431-0.226-0.389-0.46c0.138-0.816,0.51-1.601,1.103-2.184
		C35.399,8.612,36.187,8.235,36.999,8.027L36.999,8.027z M38.307,14.952c-0.464,0.144-0.918,0.393-1.206,0.793
		c-0.239,0.309-0.348,0.695-0.379,1.079c-0.028,0.397,0.008,0.811,0.183,1.174c0.138,0.294,0.387,0.543,0.694,0.659
		c0.413,0.155,0.891,0.113,1.278-0.093c0.399-0.211,0.699-0.571,0.907-0.965c0.194-0.357,0.302-0.756,0.347-1.156
		c0.062-0.572,0.032-1.148,0.041-1.721C39.544,14.723,38.909,14.769,38.307,14.952L38.307,14.952z"/>
	<path fill-rule="evenodd" clip-rule="evenodd" fill="#FFFFFF" d="M20.274,8.241c0.378-0.19,0.8-0.288,1.222-0.317
		c0.452-0.026,0.915,0.008,1.347,0.15c0.518,0.165,0.967,0.505,1.302,0.931c0.27,0.338,0.475,0.723,0.649,1.117
		c0.144-0.368,0.335-0.721,0.59-1.025c0.319-0.388,0.732-0.696,1.193-0.896c0.875-0.372,1.897-0.381,2.777-0.024
		c0.627,0.253,1.173,0.714,1.508,1.303c0.228,0.404,0.336,0.865,0.389,1.323c0.062,0.536,0.047,1.077,0.041,1.617
		c-0.012,1.169-0.003,2.341-0.006,3.512c0,1.524,0,3.048,0,4.574c0,0.229-0.207,0.417-0.43,0.422c-0.745,0-1.488,0-2.232,0
		c-0.105,0.003-0.214,0-0.307-0.055c-0.141-0.072-0.228-0.228-0.225-0.386c-0.002-1.227-0.002-2.454-0.002-3.684
		c0.004-1.113-0.007-2.226,0.008-3.341c0.002-0.389,0.003-0.777-0.023-1.165c-0.021-0.288-0.079-0.579-0.223-0.831
		c-0.107-0.185-0.268-0.34-0.464-0.429c-0.245-0.113-0.521-0.136-0.786-0.133c-0.641,0.032-1.215,0.522-1.389,1.134
		c-0.133,0.484-0.149,0.993-0.16,1.494c-0.003,2.318,0,4.635,0,6.954c0.003,0.15-0.076,0.301-0.208,0.375
		c-0.092,0.057-0.203,0.072-0.309,0.067c-0.702,0-1.403,0-2.106,0c-0.096,0-0.198,0.008-0.29-0.026
		c-0.142-0.049-0.25-0.18-0.272-0.327c-0.012-0.079-0.007-0.157-0.007-0.239c-0.001-1.129-0.002-2.256-0.003-3.383
		c-0.002-1.185-0.007-2.369,0.006-3.553c0.005-0.38-0.004-0.757-0.059-1.132c-0.047-0.29-0.122-0.584-0.28-0.835
		c-0.159-0.265-0.429-0.456-0.732-0.516c-0.335-0.067-0.699-0.05-1.014,0.088c-0.269,0.114-0.479,0.338-0.615,0.593
		c-0.194,0.372-0.265,0.792-0.305,1.204c-0.042,0.448-0.035,0.896-0.035,1.343c0,2.12,0,4.242-0.002,6.362
		c0.002,0.231-0.209,0.422-0.434,0.422c-0.774,0-1.546,0-2.321,0c-0.179,0.007-0.353-0.113-0.415-0.281
		c-0.034-0.083-0.024-0.177-0.026-0.267c0.001-3.923,0-7.847,0.001-11.771c-0.007-0.236,0.205-0.444,0.44-0.442
		c0.716-0.006,1.435-0.002,2.152-0.004c0.18-0.003,0.353,0.114,0.422,0.279c0.042,0.093,0.03,0.197,0.032,0.297
		c0,0.463,0,0.927,0,1.39c0.038,0.003,0.051-0.029,0.062-0.058c0.153-0.401,0.36-0.783,0.637-1.111
		C19.62,8.662,19.928,8.414,20.274,8.241L20.274,8.241z"/>
	<path fill-rule="evenodd" clip-rule="evenodd" fill="#FFFFFF" d="M60.957,7.931c0.97-0.071,1.974,0.096,2.829,0.57
		c0.717,0.393,1.317,0.985,1.756,1.672c0.479,0.745,0.781,1.592,0.96,2.457c0.183,0.916,0.235,1.856,0.165,2.787
		c-0.08,0.965-0.315,1.928-0.744,2.8c-0.338,0.692-0.804,1.323-1.391,1.824c-0.682,0.589-1.537,0.97-2.431,1.089
		c-0.98,0.132-2.013,0.005-2.902-0.438c-0.71-0.35-1.314-0.893-1.767-1.541c-0.506-0.714-0.84-1.541-1.04-2.391
		c-0.242-1.041-0.3-2.125-0.205-3.19c0.093-1.027,0.344-2.05,0.82-2.968c0.377-0.719,0.904-1.368,1.57-1.838
		C59.271,8.267,60.109,7.991,60.957,7.931L60.957,7.931z M61.215,10.36c-0.418,0.034-0.804,0.276-1.032,0.626
		c-0.253,0.364-0.383,0.799-0.468,1.231c-0.109,0.562-0.137,1.138-0.144,1.711c-0.003,1.025-0.003,2.061,0.224,3.066
		c0.105,0.413,0.239,0.828,0.499,1.171c0.19,0.258,0.471,0.456,0.788,0.519c0.427,0.086,0.897-0.005,1.237-0.283
		c0.287-0.229,0.47-0.559,0.598-0.899c0.144-0.383,0.22-0.787,0.27-1.193c0.077-0.663,0.081-1.33,0.075-1.994
		c-0.017-0.936-0.066-1.884-0.336-2.785c-0.103-0.341-0.276-0.68-0.568-0.896C62.036,10.386,61.609,10.326,61.215,10.36
		L61.215,10.36z"/>
	<path fill-rule="evenodd" clip-rule="evenodd" fill="#FFFFFF" d="M73.074,8.279c0.432-0.24,0.929-0.344,1.42-0.36
		c0.523-0.023,1.057,0.047,1.542,0.251c0.739,0.3,1.328,0.931,1.604,1.678c0.121,0.327,0.191,0.669,0.245,1.014
		c0.089,0.642,0.106,1.292,0.106,1.938c0.004,2.536,0,5.067,0.004,7.601c-0.004,0.082,0.006,0.165-0.023,0.242
		c-0.049,0.131-0.162,0.229-0.294,0.267c-0.084,0.023-0.167,0.018-0.251,0.018c-0.735,0-1.475,0-2.213,0
		c-0.152,0-0.296-0.093-0.364-0.23c-0.056-0.097-0.046-0.211-0.046-0.317c0-2.354,0-4.71,0.002-7.067
		c-0.002-0.527-0.025-1.065-0.198-1.566c-0.114-0.323-0.331-0.629-0.651-0.771c-0.226-0.103-0.476-0.132-0.721-0.115
		c-0.419,0.035-0.801,0.285-1.046,0.622c-0.15,0.202-0.245,0.44-0.325,0.677c-0.164,0.494-0.218,1.019-0.23,1.538
		c-0.01,0.475-0.002,0.949-0.005,1.425c0,1.795,0,3.588-0.002,5.382c0.005,0.23-0.209,0.423-0.434,0.423c-0.767,0-1.534,0-2.301,0
		c-0.174,0.005-0.347-0.098-0.416-0.26c-0.044-0.097-0.032-0.205-0.036-0.311c-0.001-3.921-0.005-7.844-0.006-11.768
		c0-0.176,0.127-0.338,0.292-0.396c0.101-0.038,0.21-0.029,0.314-0.031c0.611,0.002,1.222,0,1.83,0
		c0.104,0.002,0.213-0.009,0.312,0.034c0.143,0.055,0.271,0.19,0.271,0.35c0,0.595-0.004,1.191,0,1.786
		c0.042,0.009,0.057-0.038,0.07-0.066c0.168-0.413,0.371-0.816,0.639-1.173C72.408,8.763,72.714,8.476,73.074,8.279L73.074,8.279z"
		/>
	<path fill-rule="evenodd" clip-rule="evenodd" fill="#FFFFFF" d="M46.391,8.26c0.09-0.092,0.221-0.129,0.347-0.127
		c2.489,0,4.979,0,7.469,0c0.13-0.001,0.271-0.005,0.386,0.07c0.127,0.073,0.203,0.216,0.203,0.362c0.002,0.461,0,0.923,0.002,1.384
		c0.014,0.315-0.191,0.579-0.354,0.83c-1.396,1.993-2.794,3.983-4.189,5.975c1.231-0.018,2.489,0.125,3.639,0.594
		c0.252,0.102,0.498,0.219,0.733,0.353c0.26,0.138,0.406,0.431,0.397,0.72c0,0.523,0,1.049,0,1.574
		c-0.003,0.092,0.007,0.185-0.014,0.276c-0.041,0.166-0.181,0.312-0.356,0.335c-0.077,0.011-0.151-0.017-0.219-0.049
		c-2.427-1.25-5.45-1.287-7.892-0.052c-0.113,0.052-0.228,0.141-0.359,0.115c-0.206-0.042-0.351-0.249-0.348-0.455
		c-0.001-0.595,0-1.19,0-1.786c0-0.373,0.066-0.759,0.273-1.076c0.124-0.187,0.255-0.368,0.384-0.551
		c1.405-2.016,2.811-4.031,4.217-6.044c-1.333-0.002-2.664,0-3.994-0.002c-0.126,0-0.255-0.044-0.338-0.141
		c-0.08-0.084-0.111-0.202-0.109-0.316c0-0.554,0-1.107,0-1.66C46.267,8.469,46.304,8.345,46.391,8.26L46.391,8.26z"/>
</g>
</svg>
