<?xml version="1.0" encoding="utf-8"?>
<!-- Generator: Adobe Illustrator 16.0.4, SVG Export Plug-In . SVG Version: 6.00 Build 0)  -->
<!DOCTYPE svg PUBLIC "-//W3C//DTD SVG 1.1//EN" "http://www.w3.org/Graphics/SVG/1.1/DTD/svg11.dtd">
<svg version="1.1" id="Layer_1" xmlns="http://www.w3.org/2000/svg" xmlns:xlink="http://www.w3.org/1999/xlink" x="0px" y="0px"
	 width="89.6px" height="88.899px" viewBox="-5.98 -6.083 89.6 88.899" enable-background="new -5.98 -6.083 89.6 88.899"
	 xml:space="preserve">
<path display="none" fill="#0F3C64" d="M58.938,49.701c-0.057-0.244-0.233-0.432-0.461-0.482l-0.274-0.061v-4.209l0.448-0.421
	c0.179-0.166,0.252-0.43,0.189-0.674c-0.062-0.246-0.244-0.433-0.475-0.478l-2.525-0.5v-3.543v-0.074l0.465-0.433
	c0.178-0.166,0.252-0.428,0.191-0.673c-0.062-0.247-0.248-0.432-0.478-0.477l-20.417-4.023c-0.159-0.032-0.321,0.008-0.453,0.107
	L19.33,45.806c-0.298,0.182-1.394,1.002-1.373,3.283c0.022,2.475,1.364,3.6,1.422,3.646c0.008,0.009,0.017,0.011,0.024,0.017
	c0.014,0.01,0.027,0.02,0.041,0.026c0.016,0.013,0.031,0.021,0.048,0.027c0.014,0.008,0.027,0.014,0.044,0.021
	c0.018,0.006,0.033,0.012,0.052,0.018c0.011,0.004,0.02,0.008,0.03,0.01l0.935,0.215c-0.152,0.449-0.255,1.014-0.248,1.723
	c0.012,1.228,0.347,2.121,0.688,2.717l-0.725,0.552c-0.3,0.185-1.393,1.004-1.372,3.28c0.022,2.476,1.364,3.603,1.422,3.646
	c0.052,0.039,0.152,0.098,0.238,0.117l21.418,4.908c0.002,0,0.004,0,0.006,0.002l0.767,0.176c0.041,0.008,0.082,0.014,0.125,0.014
	c0.141,0,0.278-0.057,0.391-0.16l14.076-13.127c0.176-0.164,0.25-0.424,0.193-0.666c-0.06-0.244-0.236-0.43-0.464-0.481l-0.25-0.058
	v-3.547l1.927-1.797C58.921,50.203,58.997,49.943,58.938,49.701z M41.837,52.115c0.143,0,0.281-0.057,0.393-0.158l12.41-11.578
	v4.191L41.724,56.564v-4.463C41.763,52.107,41.8,52.115,41.837,52.115z M20.265,47.185l20.25,4.641v4.461l-20.25-4.629V47.185z
	 M21.204,63.904v-4.471l20.25,4.643v4.469L21.204,63.904z M22.622,57.357v-3.816l18.415,4.219c0.002,0,0.004,0.003,0.006,0.003
	l0.766,0.176c0.041,0.011,0.08,0.015,0.123,0.015c0.144,0,0.283-0.056,0.394-0.158l0.336-0.312l0.198,0.045v4.466L22.622,57.357z
	 M55.61,56.792l-12.94,12.031l-0.006-4.471c0.037,0.006,0.073,0.012,0.112,0.012c0.142,0,0.281-0.055,0.392-0.158l0.684-0.639
	l0.303,0.07c0.041,0.012,0.082,0.014,0.123,0.014c0.144,0,0.283-0.055,0.394-0.158L55.61,53.285V56.792L55.61,56.792z
	 M57.017,50.244L44.075,62.269l-0.005-4.467c0.037,0.008,0.074,0.012,0.109,0.012c0.144,0,0.281-0.055,0.394-0.156l12.442-11.605
	L57.017,50.244L57.017,50.244z"/>
<g display="none">
	<path display="inline" fill="#0F3C64" d="M59.749,42.421l-1.207,16.295h5.137L62.47,42.421l-0.424-3.897v-6.105l4.957-2.175
		L37.991,17.31L8.979,30.244l29.013,12.935l22.182-9.852v5.197"/>
</g>
<ellipse display="none" fill="#0F3C64" cx="61.106" cy="38.322" rx="2.666" ry="1.136"/>
<g display="none">
	<g display="inline">
		<path fill="#0F3C64" d="M36.284,34.102v-2.935c-1.228-0.102-2.244-0.278-3.024-0.527c-0.817-0.26-1.504-0.509-2.041-0.737
			l-0.15-0.064v-5.222h5.12v0.247c0,0.432,0.07,0.747,0.206,0.938c0.117,0.163,0.411,0.25,0.852,0.25c0.5,0,0.728-0.101,0.832-0.187
			c0.137-0.114,0.205-0.29,0.205-0.538c0-0.163-0.058-0.302-0.175-0.426c-0.095-0.101-0.329-0.275-0.901-0.541
			c-1.03-0.45-1.952-0.891-2.735-1.306c-0.796-0.423-1.466-0.899-1.992-1.415c-0.536-0.525-0.94-1.148-1.205-1.852
			c-0.261-0.697-0.395-1.548-0.395-2.53c0-0.813,0.099-1.567,0.294-2.243c0.198-0.687,0.521-1.298,0.964-1.817
			c0.441-0.521,1.029-0.951,1.746-1.28c0.656-0.302,1.463-0.517,2.4-0.639V8.454h3.249v2.765c0.573,0.05,1.095,0.123,1.549,0.218
			c0.512,0.107,0.985,0.231,1.414,0.371c0.426,0.14,0.821,0.29,1.18,0.446c0.363,0.161,0.67,0.329,0.908,0.5l0.102,0.074v4.724
			h-4.91v-0.248c0-0.386-0.08-0.643-0.237-0.763c-0.183-0.138-0.402-0.206-0.671-0.206c-0.512,0-0.75,0.09-0.86,0.164
			c-0.049,0.033-0.196,0.134-0.196,0.514c0,0.188,0.063,0.31,0.205,0.394c0.204,0.123,0.521,0.263,0.938,0.418
			c0.816,0.31,1.599,0.64,2.32,0.98c0.74,0.349,1.402,0.788,1.968,1.305c0.567,0.524,1.022,1.165,1.35,1.905
			c0.33,0.742,0.494,1.658,0.494,2.725c0,1.918-0.494,3.434-1.474,4.505c-0.938,1.027-2.309,1.663-4.077,1.889v2.967L36.284,34.102
			L36.284,34.102z"/>
		<path fill="#FFFFFF" d="M39.285,8.701v2.747c0.658,0.048,1.24,0.125,1.744,0.229c0.507,0.106,0.968,0.229,1.39,0.364
			c0.42,0.138,0.807,0.284,1.156,0.438s0.639,0.312,0.862,0.474v4.351h-4.416c0-0.469-0.112-0.79-0.337-0.959
			c-0.225-0.171-0.499-0.255-0.821-0.255c-0.462,0-0.796,0.069-0.998,0.206c-0.203,0.139-0.306,0.377-0.306,0.718
			c0,0.275,0.108,0.478,0.326,0.606c0.217,0.13,0.543,0.276,0.978,0.438c0.812,0.308,1.582,0.632,2.303,0.973
			c0.72,0.341,1.356,0.762,1.901,1.264c0.55,0.502,0.98,1.11,1.295,1.822c0.314,0.713,0.474,1.588,0.474,2.625
			c0,1.864-0.471,3.31-1.408,4.338c-0.939,1.03-2.32,1.641-4.144,1.835v2.941H36.53V30.94c-1.317-0.098-2.383-0.275-3.196-0.536
			c-0.813-0.258-1.486-0.501-2.02-0.729v-4.812h4.625c0,0.487,0.084,0.847,0.253,1.082c0.167,0.234,0.519,0.352,1.052,0.352
			c0.463,0,0.792-0.081,0.988-0.243c0.195-0.161,0.294-0.404,0.294-0.729c0-0.228-0.081-0.426-0.241-0.596
			c-0.161-0.17-0.487-0.369-0.979-0.596c-1.037-0.453-1.945-0.887-2.723-1.3c-0.777-0.414-1.423-0.871-1.935-1.374
			c-0.512-0.502-0.894-1.089-1.146-1.762c-0.253-0.672-0.379-1.487-0.379-2.443c0-0.793,0.095-1.518,0.284-2.174
			c0.188-0.657,0.493-1.231,0.914-1.726c0.422-0.495,0.975-0.899,1.662-1.216c0.687-0.315,1.535-0.53,2.544-0.644V8.701H39.285
			 M39.779,8.207h-0.493h-2.755h-0.494v0.494v2.361c-0.871,0.129-1.628,0.34-2.257,0.629c-0.75,0.344-1.365,0.797-1.83,1.344
			c-0.466,0.546-0.806,1.188-1.014,1.909c-0.201,0.697-0.303,1.476-0.303,2.312c0,1.011,0.138,1.892,0.41,2.617
			c0.276,0.737,0.702,1.391,1.263,1.941c0.542,0.532,1.231,1.023,2.049,1.457c0.788,0.418,1.714,0.861,2.752,1.314
			c0.584,0.271,0.77,0.429,0.822,0.484c0.074,0.08,0.106,0.157,0.106,0.257c0,0.253-0.088,0.324-0.115,0.347
			c-0.038,0.032-0.195,0.13-0.675,0.13c-0.529,0-0.64-0.13-0.649-0.146c-0.06-0.083-0.16-0.297-0.16-0.794v-0.494h-0.495h-4.625
			h-0.494v0.494v4.812v0.326l0.301,0.128c0.544,0.232,1.238,0.482,2.062,0.745c0.75,0.238,1.707,0.413,2.853,0.518v2.463v0.494
			h0.494h2.755h0.493v-0.494v-2.507c1.727-0.257,3.073-0.906,4.016-1.936c1.02-1.118,1.537-2.689,1.537-4.671
			c0-1.102-0.174-2.051-0.517-2.825c-0.342-0.771-0.815-1.44-1.41-1.986c-0.581-0.534-1.264-0.987-2.026-1.348
			c-0.573-0.27-1.184-0.534-1.816-0.785h0.46h4.417h0.492v-0.494v-4.351V12.7l-0.205-0.148c-0.25-0.181-0.572-0.358-0.953-0.525
			c-0.362-0.16-0.768-0.313-1.198-0.455c-0.438-0.143-0.923-0.271-1.441-0.378c-0.403-0.085-0.857-0.152-1.354-0.201V8.701
			L39.779,8.207L39.779,8.207z M39.528,17.784c-0.161-0.063-0.323-0.126-0.487-0.188c-0.407-0.152-0.709-0.286-0.899-0.399
			c-0.043-0.025-0.085-0.051-0.085-0.183c0-0.094,0.011-0.257,0.088-0.309c0.042-0.029,0.219-0.121,0.722-0.121
			c0.214,0,0.384,0.05,0.521,0.154c0.033,0.025,0.141,0.14,0.141,0.566V17.784L39.528,17.784z"/>
	</g>
</g>
<path display="none" fill="#0F3C64" stroke="#FFFFFF" stroke-width="0.5926" stroke-miterlimit="10" d="M23.282,36.972
	c-1.512,2.236-1.512,4.896-1.512,4.896v2.176c6.891,0,12.936,3.687,16.259,9.187c3.325-5.5,9.368-9.187,16.319-9.187v-2.176
	c0-2.177-0.604-3.748-1.451-4.896L38.03,43.56L23.282,36.972z"/>
<g display="none">
	<path display="inline" fill="#0F3C64" d="M64.696,46.378c-1.122-1.074-2.858-1.004-4.042,0l-8.746,7.412
		c-1.073,0.914-2.407,1.403-3.791,1.403H36.913c-0.832,0-1.516-0.723-1.516-1.604c0-0.881,0.684-1.605,1.516-1.605h7.413
		c1.514,0,2.907-1.092,3.147-2.668c0.312-2.006-1.153-3.752-2.988-3.752H29.329c-2.559,0-5.034,0.934-7.012,2.639l-4.403,3.781
		h-5.255c-0.833,0-1.516,0.725-1.516,1.605v9.631c0,0.883,0.683,1.604,1.516,1.604h33.793c1.373,0,2.708-0.492,3.79-1.404
		l14.322-12.137C66.011,50.068,66.121,47.742,64.696,46.378L64.696,46.378z"/>
	<path display="inline" fill="#0F3C64" d="M26.198,35.275c0,0.966,0.78,1.747,1.746,1.747h8.734v-8.734h-10.48V35.275z
		 M50.654,19.554h-2.298c0.338-0.661,0.552-1.393,0.552-2.184c0-2.647-2.156-4.804-4.805-4.804c-2.271,0-3.74,1.163-5.623,3.729
		c-1.883-2.565-3.352-3.729-5.623-3.729c-2.646,0-4.804,2.157-4.804,4.804c0,0.791,0.208,1.523,0.551,2.184h-2.407
		c-0.966,0-1.745,0.781-1.745,1.747v4.367c0,0.481,0.392,0.874,0.873,0.874h26.202c0.48,0,0.874-0.393,0.874-0.874V21.3
		C52.401,20.334,51.62,19.554,50.654,19.554z M32.853,19.554c-1.206,0-2.184-0.977-2.184-2.184s0.978-2.184,2.184-2.184
		c1.086,0,1.89,0.18,4.701,4.367h-4.701V19.554z M44.104,19.554h-4.7c2.805-4.176,3.585-4.367,4.7-4.367
		c1.207,0,2.185,0.977,2.185,2.184C46.287,18.576,45.311,19.554,44.104,19.554z M40.173,37.022h8.734
		c0.966,0,1.746-0.78,1.746-1.747v-6.987h-10.48V37.022z"/>
</g>
<g>
	<path fill="#0F3C64" d="M17.553,81.851c0.017-0.955,0.002-1.912,0-2.867c-0.012-5.206,0.035-10.41-0.024-15.617
		c-0.019-1.589-0.207-3.179-0.337-4.767c-0.074-0.887,0.068-1.725,0.632-2.409c1.958-2.374,2.726-5.191,3.038-8.164
		c0.146-1.38,0.571-2.625,1.243-3.824c1.074-1.926,2.105-3.872,3.137-5.822c0.194-0.373,0.34-0.778,0.452-1.184
		c0.142-0.51,0.154-1.019-0.418-1.311c-0.542-0.277-0.981-0.077-1.338,0.349c-0.319,0.387-0.645,0.778-0.912,1.202
		c-0.98,1.55-1.925,3.118-2.906,4.666c-0.319,0.502-0.669,1.239-1.37,0.928c-0.677-0.303-0.199-0.994-0.093-1.499
		c0.597-2.831,1.244-5.65,1.817-8.485c0.234-1.16,0-1.561-0.733-1.719c-0.883-0.19-1.413,0.145-1.745,1.2
		c-0.801,2.561-1.56,5.131-2.367,7.688c-0.163,0.519-0.167,1.348-0.956,1.251c-0.896-0.112-0.621-0.962-0.574-1.501
		c0.239-2.805,0.555-5.603,0.82-8.403c0.048-0.523,0.008-1.06-0.044-1.584c-0.056-0.553-0.35-0.945-0.937-1.031
		c-0.619-0.092-1.151,0.104-1.393,0.682c-0.25,0.607-0.46,1.251-0.543,1.9c-0.364,2.843-0.662,5.698-1.021,8.543
		c-0.075,0.592,0.029,1.467-0.822,1.479c-0.263,0.002-0.656-0.851-0.788-1.364C8.81,38,8.339,35.792,7.811,33.597
		c-0.144-0.59-0.327-1.179-0.579-1.73c-0.388-0.859-0.982-1.14-1.707-0.895c-0.79,0.268-1.012,0.702-0.831,1.715
		c0.537,3.032,1.069,6.065,1.641,9.094c0.322,1.71-0.022,3.272-0.935,4.722c-0.556,0.878-1.275,1.047-2.076,0.387
		c-0.56-0.463-1.016-1.076-1.444-1.675c-1.464-2.032-3.417-3.136-5.931-3.209c-0.59-0.02-1.224-0.043-1.432,0.699
		c-0.191,0.69,0.241,1.084,0.761,1.422c1.931,1.247,3.629,2.739,4.508,4.913c0.685,1.697,1.747,3.076,3.038,4.327
		c0.839,0.812,1.629,1.673,2.448,2.506c1.005,1.022,1.45,2.23,1.44,3.674c-0.042,7.145,0.009,14.289,0,21.435
		c0,0.291-0.024,0.579,0,0.87C10.325,81.851,13.94,81.851,17.553,81.851z"/>
	<path fill="#0F3C64" d="M49.143,81.778c0.026-1.57,0.007-3.137,0-4.704c-0.018-8.549,0.089-17.097,0-25.643
		c-0.022-2.61-0.331-5.22-0.52-7.83c-0.104-1.45,0.098-2.83,0.915-3.951c2.829-3.901,3.938-8.527,4.389-13.406
		c0.211-2.266,0.828-4.31,1.799-6.282c1.552-3.159,3.041-6.357,4.533-9.556c0.282-0.61,0.49-1.279,0.654-1.945
		c0.203-0.837,0.221-1.673-0.604-2.15c-0.784-0.457-1.422-0.127-1.935,0.572c-0.466,0.635-0.934,1.279-1.32,1.973
		c-1.417,2.543-2.784,5.121-4.201,7.661c-0.46,0.825-0.968,2.035-1.979,1.522c-0.979-0.493-0.289-1.63-0.135-2.461
		C51.6,10.931,52.536,6.3,53.365,1.645c0.338-1.902,0.002-2.563-1.058-2.819c-1.279-0.312-2.048,0.235-2.523,1.97
		c-1.16,4.2-2.258,8.424-3.424,12.624c-0.236,0.849-0.241,2.213-1.386,2.052c-1.292-0.183-0.893-1.58-0.828-2.463
		c0.347-4.604,0.806-9.197,1.186-13.797c0.07-0.858,0.012-1.738-0.063-2.6c-0.08-0.907-0.507-1.552-1.355-1.694
		c-0.893-0.148-1.665,0.17-2.011,1.121c-0.362,0.996-0.666,2.056-0.785,3.119c-0.529,4.67-0.959,9.354-1.479,14.025
		c-0.109,0.971,0.042,2.411-1.186,2.429c-0.382,0.006-0.951-1.397-1.139-2.24c-0.805-3.588-1.485-7.215-2.249-10.816
		c-0.207-0.97-0.478-1.938-0.839-2.842c-0.562-1.411-1.42-1.87-2.467-1.468c-1.145,0.439-1.464,1.153-1.204,2.813
		c0.778,4.978,1.546,9.959,2.37,14.93c0.467,2.812-0.032,5.374-1.352,7.756c-0.8,1.441-1.842,1.722-2.996,0.634
		c-0.81-0.762-1.467-1.771-2.091-2.752c-2.117-3.335-4.937-5.148-8.57-5.269c-0.856-0.028-1.771-0.07-2.072,1.147
		c-0.275,1.134,0.349,1.781,1.104,2.334c2.787,2.047,5.244,4.497,6.514,8.066c0.99,2.786,2.525,5.051,4.39,7.105
		c1.213,1.333,2.357,2.749,3.541,4.117c1.45,1.676,2.062,3.663,2.052,6.031c-0.061,11.729-0.056,23.461-0.069,35.194
		c0,0.475,0.067,0.95,0.101,1.426C38.701,81.778,43.923,81.778,49.143,81.778z"/>
	<path fill="#0F3C64" d="M74.948,81.851c0.019-0.955,0.004-1.912,0-2.867c-0.011-5.206,0.036-10.41-0.024-15.617
		c-0.02-1.589-0.207-3.179-0.34-4.767c-0.072-0.887,0.07-1.725,0.634-2.409c1.96-2.374,2.725-5.191,3.036-8.164
		c0.148-1.38,0.575-2.625,1.242-3.824c1.074-1.926,2.106-3.872,3.138-5.822c0.197-0.373,0.34-0.778,0.451-1.184
		c0.144-0.51,0.153-1.019-0.414-1.311c-0.543-0.277-0.984-0.077-1.339,0.349c-0.322,0.387-0.646,0.778-0.913,1.202
		c-0.981,1.55-1.926,3.118-2.907,4.666c-0.318,0.502-0.67,1.239-1.37,0.928c-0.678-0.303-0.2-0.994-0.091-1.499
		c0.595-2.831,1.24-5.65,1.813-8.485c0.234-1.16,0.005-1.561-0.731-1.719c-0.882-0.19-1.414,0.145-1.746,1.2
		c-0.802,2.561-1.563,5.131-2.366,7.688c-0.164,0.519-0.17,1.348-0.958,1.251c-0.894-0.112-0.617-0.962-0.573-1.501
		c0.241-2.805,0.559-5.603,0.82-8.403c0.05-0.523,0.008-1.06-0.044-1.584c-0.058-0.553-0.351-0.945-0.938-1.031
		c-0.617-0.092-1.149,0.104-1.391,0.682c-0.251,0.607-0.461,1.251-0.542,1.9c-0.366,2.843-0.664,5.698-1.026,8.543
		c-0.072,0.592,0.031,1.467-0.817,1.479c-0.266,0.002-0.655-0.851-0.789-1.364c-0.558-2.185-1.028-4.394-1.556-6.588
		c-0.142-0.59-0.33-1.179-0.579-1.73c-0.387-0.859-0.984-1.14-1.707-0.895c-0.791,0.268-1.011,0.702-0.833,1.715
		c0.54,3.032,1.07,6.065,1.641,9.094c0.319,1.71-0.023,3.272-0.935,4.722c-0.556,0.878-1.278,1.047-2.073,0.387
		c-0.56-0.463-1.015-1.076-1.445-1.675c-1.465-2.032-3.418-3.136-5.931-3.209c-0.591-0.02-1.228-0.043-1.43,0.699
		c-0.192,0.69,0.235,1.084,0.757,1.422c1.931,1.247,3.628,2.739,4.508,4.913c0.688,1.697,1.746,3.076,3.039,4.327
		c0.838,0.812,1.626,1.673,2.447,2.506c1.001,1.022,1.45,2.23,1.44,3.674c-0.041,7.145,0.01,14.289,0,21.435
		c0,0.291-0.024,0.579,0,0.87C67.721,81.851,71.336,81.851,74.948,81.851z"/>
</g>
</svg>
