<?xml version="1.0" encoding="utf-8"?>
<!-- Generator: Adobe Illustrator 22.1.0, SVG Export Plug-In . SVG Version: 6.00 Build 0)  -->
<svg version="1.1" id="Layer_1" xmlns="http://www.w3.org/2000/svg" xmlns:xlink="http://www.w3.org/1999/xlink" x="0px" y="0px"
	 viewBox="0 0 50 50" style="enable-background:new 0 0 50 50;" xml:space="preserve">
<style type="text/css">
	.st0{fill:#868686;}
</style>
<path class="st0" d="M30.8,25L46.9,8.9c0.7-0.7,0.7-2,0-2.7l-3.1-3.1c-0.7-0.7-2-0.7-2.7,0L25,19.2L8.9,3.1c-0.7-0.7-2-0.7-2.7,0
	L3.1,6.2c-0.7,0.7-0.7,2,0,2.7L19.2,25L3.1,41.1c-0.7,0.7-0.7,2,0,2.7l3.1,3.1c0.7,0.7,2,0.7,2.7,0L25,30.8l16.1,16.1
	c0.7,0.7,2,0.7,2.7,0l3.1-3.1c0.7-0.7,0.7-2,0-2.7L30.8,25z"/>
</svg>
